<mxfile host="app.diagrams.net" modified="2023-12-26T02:48:59.327Z" agent="Mozilla/5.0 (Macintosh; Intel Mac OS X 10_15_7) AppleWebKit/537.36 (KHTML, like Gecko) Chrome/120.0.0.0 Safari/537.36" etag="pQiREyVJMHE8XyiolMVQ" version="22.1.11" type="github">
  <diagram id="9fnjXT7nlAm7Ix4f8WDv" name="Page-1">
    <mxGraphModel dx="-399" dy="423" grid="0" gridSize="10" guides="1" tooltips="1" connect="1" arrows="1" fold="1" page="1" pageScale="1" pageWidth="1300" pageHeight="530" background="#EFF1F3" math="0" shadow="0">
      <root>
        <mxCell id="0" />
        <mxCell id="1" parent="0" />
        <mxCell id="IF7kysIinetxUULhLs4Z-4" value="Begin Flag" style="rounded=1;whiteSpace=wrap;html=1;fontSize=23;fillColor=#6DB5A8;" parent="1" vertex="1">
          <mxGeometry x="1356" y="837.5" width="370" height="60" as="geometry" />
        </mxCell>
        <mxCell id="IF7kysIinetxUULhLs4Z-6" value="扩展2" style="rounded=1;whiteSpace=wrap;html=1;fontSize=14;fillColor=#6DB5A8;" parent="1" vertex="1">
          <mxGeometry x="1756" y="837.5" width="30" height="60" as="geometry" />
        </mxCell>
        <mxCell id="IF7kysIinetxUULhLs4Z-7" value="扩展3" style="rounded=1;whiteSpace=wrap;html=1;fontSize=14;fillColor=#6DB5A8;" parent="1" vertex="1">
          <mxGeometry x="1786" y="837.5" width="30" height="60" as="geometry" />
        </mxCell>
        <mxCell id="IF7kysIinetxUULhLs4Z-8" value="&lt;font style=&quot;font-size: 12px;&quot;&gt;是否压缩&lt;/font&gt;" style="rounded=1;whiteSpace=wrap;html=1;fontSize=10;fillColor=#EA6B66;" parent="1" vertex="1">
          <mxGeometry x="1816" y="837.5" width="30" height="60" as="geometry" />
        </mxCell>
        <mxCell id="IF7kysIinetxUULhLs4Z-9" value="扩展5" style="rounded=1;whiteSpace=wrap;html=1;fontSize=14;fillColor=#6DB5A8;" parent="1" vertex="1">
          <mxGeometry x="1846" y="837.5" width="30" height="60" as="geometry" />
        </mxCell>
        <mxCell id="IF7kysIinetxUULhLs4Z-10" value="扩展6" style="rounded=1;whiteSpace=wrap;html=1;fontSize=14;fillColor=#6DB5A8;" parent="1" vertex="1">
          <mxGeometry x="1876" y="837.5" width="30" height="60" as="geometry" />
        </mxCell>
        <mxCell id="IF7kysIinetxUULhLs4Z-11" value="扩展7" style="rounded=1;whiteSpace=wrap;html=1;fontSize=14;fillColor=#6DB5A8;" parent="1" vertex="1">
          <mxGeometry x="1906" y="837.5" width="30" height="60" as="geometry" />
        </mxCell>
        <mxCell id="IF7kysIinetxUULhLs4Z-12" value="扩展8" style="rounded=1;whiteSpace=wrap;html=1;fontSize=14;fillColor=#6DB5A8;" parent="1" vertex="1">
          <mxGeometry x="1936" y="837.5" width="30" height="60" as="geometry" />
        </mxCell>
        <mxCell id="IF7kysIinetxUULhLs4Z-14" value="扩展1" style="rounded=1;whiteSpace=wrap;html=1;fontSize=14;fillColor=#6DB5A8;" parent="1" vertex="1">
          <mxGeometry x="1726" y="837.5" width="30" height="60" as="geometry" />
        </mxCell>
        <mxCell id="IF7kysIinetxUULhLs4Z-16" value="&lt;font style=&quot;font-size: 23px;&quot;&gt;Value&lt;/font&gt;" style="rounded=1;whiteSpace=wrap;html=1;fontSize=23;fillColor=#F19C99;" parent="1" vertex="1">
          <mxGeometry x="2228" y="563" width="317" height="60" as="geometry" />
        </mxCell>
        <mxCell id="IF7kysIinetxUULhLs4Z-17" value="Tag" style="rounded=1;whiteSpace=wrap;html=1;fontSize=23;fillColor=#6DB5A8;" parent="1" vertex="1">
          <mxGeometry x="1715" y="563" width="256" height="60" as="geometry" />
        </mxCell>
        <mxCell id="IF7kysIinetxUULhLs4Z-18" value="Length" style="rounded=1;whiteSpace=wrap;html=1;fontSize=23;fillColor=#FDD276;" parent="1" vertex="1">
          <mxGeometry x="1971" y="563" width="257" height="60" as="geometry" />
        </mxCell>
        <mxCell id="IF7kysIinetxUULhLs4Z-19" value="" style="shape=curlyBracket;whiteSpace=wrap;html=1;rounded=1;fillColor=#FDD276;fontSize=10;direction=west;strokeWidth=5;rotation=90;strokeColor=#6DB5A8;" parent="1" vertex="1">
          <mxGeometry x="1832" y="522" width="20" height="252" as="geometry" />
        </mxCell>
        <mxCell id="IF7kysIinetxUULhLs4Z-20" value="&lt;font style=&quot;font-size: 30px&quot;&gt;&lt;font color=&quot;#4d4d4d&quot;&gt;5字节&lt;/font&gt;&lt;br&gt;&lt;/font&gt;" style="text;html=1;strokeColor=none;fillColor=none;align=center;verticalAlign=middle;whiteSpace=wrap;rounded=0;fontSize=10;" parent="1" vertex="1">
          <mxGeometry x="1792" y="664" width="100" height="80" as="geometry" />
        </mxCell>
        <mxCell id="IF7kysIinetxUULhLs4Z-25" value="协议号" style="rounded=1;whiteSpace=wrap;html=1;fontSize=23;fillColor=#6DB5A8;" parent="1" vertex="1">
          <mxGeometry x="1966" y="837.5" width="372" height="60" as="geometry" />
        </mxCell>
        <mxCell id="IF7kysIinetxUULhLs4Z-26" value="" style="shape=flexArrow;endArrow=classic;html=1;rounded=0;fillColor=#6DB5A8;gradientColor=none;strokeColor=none;" parent="1" edge="1">
          <mxGeometry width="50" height="50" relative="1" as="geometry">
            <mxPoint x="1830.57" y="739.5" as="sourcePoint" />
            <mxPoint x="1830.57" y="815.5" as="targetPoint" />
          </mxGeometry>
        </mxCell>
        <mxCell id="IF7kysIinetxUULhLs4Z-27" value="" style="shape=curlyBracket;whiteSpace=wrap;html=1;rounded=1;fillColor=#FDD276;fontSize=10;direction=west;strokeWidth=5;rotation=90;strokeColor=#6DB5A8;" parent="1" vertex="1">
          <mxGeometry x="1836.5" y="811" width="20" height="233" as="geometry" />
        </mxCell>
        <mxCell id="IF7kysIinetxUULhLs4Z-28" value="&lt;font style=&quot;font-size: 30px&quot;&gt;&lt;font color=&quot;#4d4d4d&quot;&gt;1字节&lt;/font&gt;&lt;br&gt;&lt;/font&gt;" style="text;html=1;strokeColor=none;fillColor=none;align=center;verticalAlign=middle;whiteSpace=wrap;rounded=0;fontSize=10;" parent="1" vertex="1">
          <mxGeometry x="1796.5" y="943.5" width="100" height="80" as="geometry" />
        </mxCell>
        <mxCell id="IF7kysIinetxUULhLs4Z-31" value="" style="shape=curlyBracket;whiteSpace=wrap;html=1;rounded=1;fillColor=#FDD276;fontSize=10;direction=west;strokeWidth=5;rotation=90;strokeColor=#6DB5A8;" parent="1" vertex="1">
          <mxGeometry x="1531" y="748" width="20" height="359" as="geometry" />
        </mxCell>
        <mxCell id="IF7kysIinetxUULhLs4Z-32" value="&lt;font style=&quot;font-size: 30px&quot;&gt;&lt;font color=&quot;#4d4d4d&quot;&gt;2字节&lt;/font&gt;&lt;br&gt;&lt;/font&gt;" style="text;html=1;strokeColor=none;fillColor=none;align=center;verticalAlign=middle;whiteSpace=wrap;rounded=0;fontSize=10;" parent="1" vertex="1">
          <mxGeometry x="1491" y="943.5" width="100" height="80" as="geometry" />
        </mxCell>
        <mxCell id="IF7kysIinetxUULhLs4Z-33" value="" style="shape=curlyBracket;whiteSpace=wrap;html=1;rounded=1;fillColor=#FDD276;fontSize=10;direction=west;strokeWidth=5;rotation=90;strokeColor=#6DB5A8;" parent="1" vertex="1">
          <mxGeometry x="2142" y="748" width="20" height="359" as="geometry" />
        </mxCell>
        <mxCell id="IF7kysIinetxUULhLs4Z-34" value="&lt;font style=&quot;font-size: 30px&quot;&gt;&lt;font color=&quot;#4d4d4d&quot;&gt;2字节&lt;/font&gt;&lt;br&gt;&lt;/font&gt;" style="text;html=1;strokeColor=none;fillColor=none;align=center;verticalAlign=middle;whiteSpace=wrap;rounded=0;fontSize=10;" parent="1" vertex="1">
          <mxGeometry x="2102" y="943.5" width="100" height="80" as="geometry" />
        </mxCell>
      </root>
    </mxGraphModel>
  </diagram>
</mxfile>
